<svg width="300" height="300" viewBox="0 0 300 300" fill="none" xmlns="http://www.w3.org/2000/svg">
<rect width="300" height="300" fill="white"/>
<path d="M88.756 139.072H91.204V144.904C91.204 152.104 87.316 159.124 82.168 161.86L80.332 159.484C85.048 157.108 88.756 150.844 88.756 144.904V139.072ZM89.296 139.072H91.708V144.904C91.708 150.628 95.344 156.568 99.952 158.872L98.116 161.248C93.076 158.548 89.296 151.888 89.296 144.904V139.072ZM102.796 136.264H105.82V168.808H102.796V136.264ZM105.1 149.44H111.148V151.96H105.1V149.44ZM122.557 139.828H125.041V143.14C125.041 149.116 121.369 154.12 115.897 156.1L114.349 153.724C119.245 151.996 122.557 147.784 122.557 143.14V139.828ZM123.133 139.828H125.617V143.14C125.617 147.532 129.001 151.492 133.825 153.112L132.277 155.452C126.877 153.616 123.133 148.864 123.133 143.14V139.828ZM115.141 138.964H132.961V141.376H115.141V138.964ZM137.569 136.3H140.593V160.096H137.569V136.3ZM119.677 165.64H141.565V168.088H119.677V165.64ZM119.677 157.864H122.629V166.72H119.677V157.864ZM171.753 143.932H179.961V146.416H171.753V143.932ZM163.221 138.244H165.633V142.24C165.633 148.54 162.105 153.796 156.669 155.992L155.121 153.616C159.945 151.816 163.221 147.208 163.221 142.24V138.244ZM163.797 138.244H166.209V142.348C166.209 146.884 169.377 151.168 174.093 152.896L172.473 155.2C167.289 153.184 163.797 148.144 163.797 142.348V138.244ZM178.845 136.3H181.833V160.636H178.845V136.3ZM160.917 165.64H182.625V168.088H160.917V165.64ZM160.917 157.936H163.905V166.792H160.917V157.936ZM189.57 151.816H191.658C196.77 151.816 199.794 151.708 203.43 150.988L203.718 153.436C199.974 154.156 196.878 154.3 191.658 154.3H189.57V151.816ZM189.57 138.64H202.17V141.088H192.45V153.148H189.57V138.64ZM191.55 145.12H201.774V147.46H191.55V145.12ZM212.754 136.264H215.598V155.992H212.754V136.264ZM207.498 144.76H213.654V147.208H207.498V144.76ZM205.59 136.876H208.398V155.812H205.59V136.876ZM193.782 157.72H215.598V168.808H212.646V160.168H193.782V157.72Z" fill="black"/>
</svg>
