<svg width="88" height="83" viewBox="0 0 88 83" fill="none" xmlns="http://www.w3.org/2000/svg">
<path d="M33.2584 52.864C31.9673 50.7669 30.4631 46.776 30.4136 44.2238C35.0919 43.8911 39.6604 43.6712 44.2224 43.3569C47.6029 43.124 50.9751 42.7711 54.3505 42.466C55.8358 42.3317 57.3197 42.1834 58.9495 42.0276C58.9495 42.865 58.9495 43.5914 58.9495 44.3178C58.8945 46.2766 58.2594 48.0733 57.3726 49.9055C57.8199 50.2592 58.2845 50.6349 58.7577 50.9993C61.8003 53.3424 64.8557 55.6691 67.8793 58.0363C68.476 58.5034 69.0178 59.0745 69.4747 59.6807C72.5753 63.7946 75.6536 67.9253 78.7173 72.0668C79.0753 72.5507 79.4058 72.6813 79.9981 72.518C81.4439 72.1192 82.9118 71.8 84.3727 71.4569C85.7758 71.1274 85.7769 71.1318 86.3402 72.3372C82.4614 77.6045 76.5146 79.7696 71.1626 82.8364C68.5611 77.0381 64.1052 72.5988 60.6086 67.4992C60.3616 67.1389 60.0016 66.8407 59.6509 66.5694C55.9301 63.6908 52.193 60.8331 48.4812 57.9429C47.8991 57.4896 47.39 57.1785 46.591 57.3898C45.8903 57.575 45.1304 57.5365 44.235 57.5852C43.3761 57.4827 42.9152 58.1703 42.2264 58.0363C38.2585 57.2639 35.5781 56.142 33.2584 52.864Z" fill="#0074DD"/>
<path d="M32.0388 36.9753C29.8536 38.5311 27.6605 40.0759 25.4854 41.6457C23.0151 43.4285 20.8866 43.2089 18.9191 40.9146C15.108 36.4705 11.3013 32.0227 7.50233 27.5683C5.82254 25.5987 6.00635 23.0646 7.9218 21.4275C9.69105 19.9153 12.2951 20.1381 13.9251 22.0155C16.7984 25.325 19.6301 28.6704 22.4798 32.0003C22.6868 32.2422 22.8988 32.4798 23.1781 32.799C24.9448 31.5122 26.6926 30.2393 28.4402 28.9661C28.8539 28.6647 29.2612 28.3542 29.6812 28.062C31.1519 27.039 32.4503 25.8896 33.5681 24.432C35.8853 21.4104 39.0698 19.7314 42.9079 19.3083C42.6967 19.4914 42.3933 19.5664 42.1958 19.7533C41.8261 20.1033 41.2893 20.5 41.2566 20.9118C41.2307 21.239 41.8002 21.8363 42.1969 21.9312C43.2592 22.1855 44.3773 22.377 45.461 22.3271C46.706 22.2698 47.6464 21.4585 47.6211 20.7969C47.593 20.062 46.4637 19.3781 45.2119 19.318C44.6153 19.2894 44.0203 19.226 43.4246 19.1784C48.4816 18.8033 52.6131 20.619 55.8943 24.4469C56.0605 24.6407 56.2266 24.8345 56.4709 25.1055C56.5941 25.224 56.6463 25.2519 56.7057 25.2662C56.7057 25.2662 56.6868 25.2547 56.694 25.3176C57.3965 27.08 58.0919 28.7795 58.7091 30.4607C58.1598 30.387 57.6776 30.2379 57.2192 30.2915C54.4754 30.6123 51.7288 30.926 48.9996 31.3485C46.7395 31.6984 44.5022 32.1953 42.2573 32.534C42.3128 30.9311 42.1582 29.4545 41.5845 27.8542C41.265 29.5828 40.5346 30.7808 39.1768 31.6607C37.963 32.4473 36.8763 33.4299 35.6753 34.3563C34.4243 35.2496 33.2315 36.1124 32.0388 36.9753Z" fill="#FF004C"/>
<path d="M38.5403 61.3082C35.1428 63.5268 31.774 65.7913 28.3349 67.9436C26.756 68.9317 25.0074 68.9097 23.2546 68.2507C18.8312 66.5877 14.3937 64.9619 9.97232 63.2935C9.36471 63.0642 8.86432 63.0565 8.25336 63.3225C6.46857 64.0995 4.61925 64.7316 2.85069 65.5416C1.78251 66.0308 0.873044 66.1728 0 65.1488C1.80897 62.7943 4.36109 60.9836 5.7425 58.1562C7.086 55.4065 8.6809 52.7797 10.2131 50.0128C14.2956 52.9076 19.1169 53.9252 23.5679 55.8147C24.4158 56.1747 25.1136 56.2272 25.8264 55.5826C26.1302 55.3078 26.521 55.1293 26.995 54.9218C30.4822 57.8547 34.2472 60.0548 38.5403 61.3082Z" fill="#0074DD"/>
<path d="M56.4371 28.857C52.6711 26.0321 55.7172 26.7874 55.0211 25.016C57.6328 26.1435 61.9455 27.5926 64.526 28.857C65.4877 29.3282 66.2099 29.3126 67.1447 28.7388C71.7792 25.8939 76.4582 23.1212 81.1339 20.3439C83.3545 19.025 85.948 19.6354 87.158 21.7155C88.3996 23.8498 87.7057 26.3124 85.4683 27.6541C81.4625 30.056 77.4512 32.4486 73.4421 34.8449C71.7945 35.8297 70.1427 36.8074 68.5001 37.8002C67.0725 38.663 65.6279 38.7353 64.113 38.0184C60.5874 36.35 55.2354 32.9501 51.7171 31.222C53.2218 30.5928 53.5478 30.8043 55.0211 30.208C52.033 28.722 52.6711 27.235 56.4371 28.857Z" fill="#FF004C"/>
<path d="M47.0475 0.774775C49.2484 2.47726 49.9655 5.40428 48.835 7.8564C47.9025 9.87917 45.7215 11.0377 43.5727 10.6517C41.2149 10.2281 39.5971 8.45517 39.4227 6.05749C39.3165 4.59623 39.4799 3.18217 40.3961 1.95857C41.9433 -0.10784 44.6189 -0.600516 47.0475 0.774775Z" fill="#FF004C"/>
<path d="M48.4263 19.4937C51.5519 20.8423 52.5703 23.1609 50.9649 25.1033C49.6406 26.7056 46.543 27.6234 43.4913 27.3176C40.1427 26.982 37.8451 25.5776 37.5975 23.6784C37.4466 22.5208 37.6787 21.4007 38.9799 20.4314C41.1772 18.7946 44.9771 18.4043 48.4263 19.4937Z" fill="#FF004C"/>
<path d="M35.6183 63.248C30.4263 60.888 30.0727 58.1772 26.6503 55.224C28.4353 53.9708 30.6876 52.4303 32.5717 51.1645C34.9326 54.3947 38.0148 56.5221 41.9827 57.2945C42.6715 57.4286 43.376 57.4826 44.1568 57.596C42.3861 58.8373 37.5412 62.0126 35.6183 63.248Z" fill="#0074DD"/>
<path d="M58.709 30.4607C58.5303 30.7329 58.3181 31.097 58.0092 31.222C56.5359 31.8183 55.0362 32.3496 53.4831 32.9334C49.1039 33.9547 44.8064 35.0414 40.4644 35.9039C37.7512 36.4428 34.9708 36.6437 32.1296 36.9858C33.2314 36.1124 34.8122 31.3557 36.1411 30.4607C38.3991 29.8635 39.6833 31.0259 41.8051 30.4607C44.0525 30.029 46.4108 28.207 49.3571 29.264C52.0863 28.8414 55.0211 29.264 57.2191 30.2915C55.0211 26.432 58.1597 30.387 58.709 30.4607Z" fill="#FF004C"/>
<path d="M45.1091 33.512C42.9848 34.1702 35.0369 33.4171 32.8371 33.984C33.902 33.0897 33.0393 30.0505 34.2531 29.264C35.6109 28.3841 43.8456 26.7446 44.1651 25.016C44.7388 26.6163 45.1646 31.9092 45.1091 33.512Z" fill="#FF004C"/>
</svg>
