<svg width="106" height="106" viewBox="0 0 106 106" fill="none" xmlns="http://www.w3.org/2000/svg">
<circle cx="53" cy="53" r="53" fill="#FF6F2C"/>
<path d="M35.1419 92.7699C27.5811 91.3292 20.529 82.8225 20.7255 68.6859C20.7479 67.0708 20.2976 66.1762 19.3311 65.5111C18.1658 64.7093 17.0011 63.8744 15.9126 62.8845C12.6091 59.8802 12.0367 53.7895 14.6016 49.7815C15.2677 48.7407 15.869 48.4648 16.8013 49.2005C21.3826 52.8162 25.9873 56.3729 30.6047 59.8951C31.4975 60.5761 31.762 61.3238 31.4853 62.7703C30.88 65.9349 30.9236 69.1037 31.9579 72.1304C33.5841 76.8893 37.1066 78.6944 40.3268 76.0728C45.3177 72.0099 47.9941 65.585 48.6885 57.6097C48.9387 54.7359 47.8426 52.4224 45.8896 51.0659C42.0004 48.3648 38.2829 49.9321 34.9692 54.4062C33.8112 55.9695 33.0566 56.2807 31.7051 55.028C29.9655 53.4156 28.0705 52.1338 26.217 50.7797C25.2797 50.0949 25.1818 49.3741 25.8006 48.1569C32.2927 35.3864 45.2891 30.1912 54.6918 41.6953C55.3324 42.4791 55.9681 43.2716 56.6195 44.037C60.6383 48.7598 66.2563 48.8417 70.3445 44.2448C74.3529 39.7376 75.6875 31.6568 73.36 25.2005C72.7762 23.5811 73.0281 22.847 73.9788 21.9079C77.4526 18.4761 79.7167 18.2399 82.2996 21.0835C83.8703 22.8127 84.341 25.2178 84.5306 27.8142C85.7616 44.6707 78.1869 59.0336 67.0735 62.0898C65.1684 62.6137 65.8915 65.3344 64.9651 66.975C66.9469 68.0519 68.7769 68.822 70.4156 70.2046C72.0213 71.5592 73.5564 73.0701 74.8672 74.9522C75.7388 76.2036 76.5013 76.2505 77.537 75.3888C79.4609 73.7881 81.4494 72.6194 83.7897 73.7289C86.0669 74.8085 87.2703 77.0932 87.8424 80.2325C88.0518 81.3818 87.812 82.2386 87.0173 82.7956C82.1155 86.2314 77.2199 89.6856 72.328 93.1499C71.6233 93.649 71.1829 93.4121 70.8422 92.4104C68.635 85.9219 64.6963 82.7786 59.9524 81.508C56.8052 80.6651 53.9804 82.5869 51.2522 84.5411C47.9875 86.8794 44.9358 89.8061 41.4301 91.4804C39.4261 92.4375 37.4087 92.9981 35.1419 92.7699Z" fill="white"/>
<path d="M71.8868 30.3413C71.8198 36.9741 69.5259 41.5227 65.4178 43.403C61.7145 45.0981 57.9392 43.1636 55.3359 38.2426C53.7463 35.2377 52.1716 32.2163 50.5517 29.2446C49.8678 27.9899 49.7039 26.7846 50.104 25.2446C52.3266 16.6895 56.8327 12.1284 63.2077 12.0003C64.2106 11.9802 64.6394 12.9232 64.9944 13.8625C65.7942 15.9784 66.8852 16.2072 68.3395 15.3832C69.2747 14.8533 70.302 14.6562 71.2464 14.1525C72.3661 13.5553 72.918 14.4079 73.4346 15.5685C74.0286 16.9033 73.2542 17.3829 72.7163 18.0581C71.6695 19.372 70.341 20.1992 69.3486 21.9606C70.6341 24.3996 71.7197 26.9967 71.8868 30.3413Z" fill="white"/>
<path d="M42.0415 56.4379C43.2671 55.0695 44.5521 53.5958 45.9192 54.9844C47.2837 56.3703 46.7013 58.66 46.2857 60.5398C45.1244 65.7929 42.9784 70.1282 39.9161 73.508C38.9957 74.5238 37.8568 75.2653 36.8011 74.2283C35.8227 73.2672 35.9443 71.6816 36.1937 70.077C37.0408 64.6255 39.1417 60.2984 42.0415 56.4379Z" fill="white"/>
</svg>
