<svg width="125" height="125" viewBox="0 0 125 125" fill="none" xmlns="http://www.w3.org/2000/svg">
<path d="M125 62.5C125 97.0178 97.0178 125 62.5 125C27.9822 125 0 97.0178 0 62.5C0 27.9822 27.9822 0 62.5 0C97.0178 0 125 27.9822 125 62.5Z" fill="#0074DD"/>
<path d="M49.8163 73.149C48.4487 70.9275 47.539 68.5508 47.4865 65.8473C52.4423 65.4948 57.2818 65.2619 62.1144 64.9289C65.6954 64.6822 69.2677 64.3083 72.8434 63.9852C74.4167 63.8429 75.9887 63.6858 77.7152 63.5208C77.7152 64.4078 77.7152 65.1774 77.7152 65.9469C77.6569 68.0218 76.9842 69.9251 76.0447 71.866C76.5186 72.2407 77.0107 72.6386 77.512 73.0247C80.7351 75.5067 83.9717 77.9715 87.1748 80.4791C87.8068 80.9739 88.3807 81.5789 88.8647 82.2211C92.1493 86.579 95.4103 90.9548 98.6556 95.3419C99.0349 95.8546 99.385 95.9929 100.012 95.8199C101.544 95.3975 103.099 95.0594 104.646 94.6959C106.133 94.3468 106.134 94.3515 106.731 95.6284C102.622 101.208 96.3223 103.502 90.6527 106.75C87.897 100.608 83.1767 95.9055 79.4727 90.5034C79.211 90.1218 78.8297 89.8058 78.4582 89.5185C74.5167 86.469 70.5578 83.4419 66.6259 80.3802C66.0093 79.9 65.47 79.5705 64.6235 79.7943C63.8813 79.9905 63.0763 79.9496 62.1278 80.0013C61.2179 79.8926 60.4716 79.8354 59.7419 79.6933C55.5387 78.8751 52.2736 76.6215 49.8163 73.149Z" fill="white"/>
<path d="M49.1543 55.1687C46.8395 56.8169 44.5162 58.4533 42.2121 60.1162C39.5953 62.0048 37.3405 61.7721 35.2563 59.3418C31.2192 54.6341 27.1867 49.9223 23.1623 45.2037C21.3829 43.1173 21.5776 40.4329 23.6066 38.6986C25.4809 37.0967 28.2394 37.3327 29.9661 39.3215C33.0098 42.8273 36.0095 46.3712 39.0283 49.8986C39.2475 50.1548 39.4721 50.4066 39.768 50.7447C41.6395 49.3816 43.491 48.0331 45.3423 46.6844C45.7805 46.3652 46.2119 46.0362 46.6568 45.7267C48.2148 44.643 49.5902 43.4255 50.7744 41.8813C53.2289 38.6805 56.6024 36.9019 60.6682 36.4537C60.4445 36.6477 60.123 36.7271 59.9139 36.9251C59.5222 37.2958 58.9536 37.7161 58.9189 38.1523C58.8914 38.499 59.4948 39.1317 59.915 39.2323C61.0403 39.5016 62.2247 39.7044 63.3727 39.6516C64.6916 39.5909 65.6878 38.7314 65.661 38.0307C65.6312 37.2522 64.4349 36.5276 63.1088 36.464C62.4768 36.4336 61.8466 36.3665 61.2156 36.3161C66.5726 35.9187 70.9491 37.8421 74.425 41.8971C74.601 42.1024 74.777 42.3078 75.0358 42.5948C75.1663 42.7204 75.2216 42.7499 75.2845 42.765C75.2845 42.765 75.2645 42.7529 75.2721 42.8195C76.0163 44.6865 76.7529 46.4868 77.4067 48.2677C76.8248 48.1896 76.3141 48.0316 75.8285 48.0884C72.9219 48.4283 70.0123 48.7605 67.1212 49.2082C64.7271 49.5788 62.3571 50.1052 59.979 50.464C60.0378 48.766 59.8741 47.2018 59.2663 45.5066C58.9278 47.3377 58.1541 48.6068 56.7158 49.5389C55.43 50.3721 54.2788 51.413 53.0065 52.3944C51.6813 53.3406 50.4178 54.2547 49.1543 55.1687Z" fill="white"/>
<path d="M56.0953 83.9451C52.4962 86.2953 48.9275 88.6942 45.2845 90.9741C43.6119 92.0209 41.7596 91.9976 39.9028 91.2995C35.2169 89.5379 30.5162 87.8156 25.8326 86.0482C25.1889 85.8053 24.6589 85.7971 24.0116 86.0789C22.121 86.9021 20.1619 87.5716 18.2885 88.4296C17.1569 88.9479 16.1935 89.0983 15.2687 88.0135C17.185 85.5194 19.8885 83.6012 21.3518 80.6062C22.775 77.6934 24.4645 74.9107 26.0876 71.9797C30.4124 75.0462 35.5196 76.1241 40.2347 78.1258C41.1329 78.5071 41.872 78.5627 42.6271 77.8799C42.9489 77.5888 43.3629 77.3997 43.865 77.1799C47.5592 80.2867 51.5475 82.6173 56.0953 83.9451Z" fill="white"/>
<path d="M77.4894 48.2871C76.7528 46.4868 76.0162 44.6865 75.2788 42.81C78.0455 44.0044 80.8352 45.2295 83.5688 46.5689C84.5875 47.068 85.3526 47.0515 86.3428 46.4437C91.2522 43.43 96.2088 40.4928 101.162 37.5508C103.514 36.1536 106.262 36.8002 107.543 39.0037C108.859 41.2647 108.124 43.8734 105.753 45.2946C101.51 47.839 97.2607 50.3736 93.0137 52.912C91.2685 53.9552 89.5187 54.9909 87.7786 56.0426C86.2663 56.9566 84.7361 57.0331 83.1313 56.2737C79.3965 54.5063 75.6491 52.7658 71.9221 50.9352C73.5161 50.2687 75.1046 49.7058 76.6654 49.0741C76.9926 48.9417 77.2174 48.5561 77.4894 48.2871Z" fill="white"/>
<path d="M65.2647 12.425C67.5961 14.2284 68.3557 17.3291 67.1583 19.9267C66.1705 22.0695 63.86 23.2967 61.5837 22.8878C59.086 22.439 57.3723 20.561 57.1876 18.0211C57.075 16.4731 57.2482 14.9752 58.2187 13.679C59.8577 11.49 62.692 10.9681 65.2647 12.425Z" fill="white"/>
<path d="M56.168 83.9275C51.5476 82.6173 47.5592 80.2867 43.9338 77.1583C45.8247 75.8308 47.7768 74.5406 49.7726 73.1997C52.2736 76.6215 55.5387 78.8751 59.7419 79.6933C60.4716 79.8354 61.2179 79.8926 62.045 80.0128C60.1692 81.3277 58.205 82.6188 56.168 83.9275Z" fill="white"/>
<path d="M77.4066 48.2677C77.2174 48.5561 76.9926 48.9417 76.6653 49.0741C75.1046 49.7058 73.516 50.2687 71.8707 50.8871C67.2318 51.969 62.6793 53.1201 58.0797 54.0338C55.2056 54.6047 52.2603 54.8175 49.2505 55.1799C50.4177 54.2547 51.6812 53.3406 53.0889 52.3926C55.4809 51.7599 57.7286 51.1612 59.9763 50.5626C62.357 50.1052 64.727 49.5788 67.1211 49.2082C70.0122 48.7606 72.9218 48.4283 75.8284 48.0884C76.314 48.0317 76.8247 48.1896 77.4066 48.2677Z" fill="white"/>
<path d="M61.1609 36.31C61.8466 36.3666 62.4768 36.4337 63.1088 36.464C64.4349 36.5276 65.6312 37.2522 65.661 38.0307C65.6878 38.7314 64.6916 39.591 63.3727 39.6516C62.2247 39.7044 61.0403 39.5016 59.915 39.2323C59.4948 39.1317 58.8914 38.499 58.9189 38.1524C58.9535 37.7161 59.5222 37.2959 59.9139 36.9251C60.123 36.7271 60.4444 36.6477 60.7573 36.4538C60.9016 36.3632 61.0039 36.3336 61.1609 36.31Z" fill="white"/>
<path d="M59.979 50.464C57.7287 51.1612 55.481 51.7599 53.1507 52.3604C54.2787 51.413 55.4299 50.3721 56.7157 49.5389C58.1541 48.6069 58.9278 47.3378 59.2662 45.5066C59.874 47.2019 60.0378 48.7661 59.979 50.464Z" fill="white"/>
</svg>
